<svg xmlns="http://www.w3.org/2000/svg" width="40" height="41" viewBox="0 0 40 41"><path fill="#3DBCCF" d="M31.5107729,36.5494662 L36.6942011,31.2940459 L38.0391006,32.6205222 L31.5107729,39.2395212 L31.5107729,40.9300003 L29.62178,40.9300003 L29.62178,17.3175891 L31.5107729,17.3175891 L31.5107729,36.5494662 Z M10.731851,30.5405394 L12.6208439,30.5405394 L12.6208439,40.9300003 L10.731851,40.9300003 L10.731851,30.5405394 Z M11.6763474,6.30028463 L2.57377294,35.2630216 L20.7789219,35.2630216 L11.6763474,6.30028463 Z M0,37.1520145 L11.6763474,0 L23.3526948,37.1520145 L0,37.1520145 Z M33.2986038,29.4004313 L33.4827834,29.2162853 C39.7251256,22.8847667 39.6423244,12.6174135 33.2986038,6.27369293 L30.5569231,3.53201227 L27.833949,6.17924328 L27.7394994,6.27369293 C27.7040808,6.30911155 27.7040808,6.30911155 27.6497694,6.3633893 C21.4074272,12.6949079 21.4902284,22.962261 27.833949,29.3059816 L30.5756297,32.0476623 L33.2986038,29.4004313 Z M26.4982293,30.6417013 C19.4231894,23.5666614 19.3308019,12.1106105 26.3093301,5.03242289 L26.4037797,4.93797324 C26.4391983,4.90255462 26.4391983,4.90255462 26.5077011,4.83418428 L30.5756166,0.879266414 L34.6343235,4.93797324 C41.7093634,12.0130132 41.8017509,23.4690641 34.8232228,30.5472517 L34.6248517,30.7454903 L30.5569362,34.7004082 L26.4982293,30.6417013 Z"/></svg>